<svg width="24" height="24" xmlns="http://www.w3.org/2000/svg"><path fill-rule="evenodd" clip-rule="evenodd" d="M7.002 4.8a3.2 3.2 0 0 0-3.2 3.2v6.357l3.224-3.023a3.8 3.8 0 0 1 5.36.161l2.521 2.666 1.777-1.481a2.8 2.8 0 0 1 3.518-.055V8a3.2 3.2 0 0 0-3.2-3.2h-10Zm13.2 10.058-.876-.876a1.2 1.2 0 0 0-1.617-.073l-1.7 1.417 2.997 3.168A3.194 3.194 0 0 0 20.203 16v-1.142Zm-2.759 4.312-6.22-6.576a2.2 2.2 0 0 0-3.103-.093l-4.277 4.01A3.2 3.2 0 0 0 7.002 19.2h10c.15 0 .297-.01.441-.03Zm-15.23-2.828A4.8 4.8 0 0 0 7.003 20.8h10a4.8 4.8 0 0 0 4.8-4.8V8a4.8 4.8 0 0 0-4.8-4.8h-10a4.8 4.8 0 0 0-4.8 4.8v8c0 .048 0 .097.002.145a.805.805 0 0 0 .01.197Zm13.101-8.416a1.2 1.2 0 1 0 0 2.4 1.2 1.2 0 0 0 0-2.4Zm-2.8 1.2a2.8 2.8 0 1 1 5.6 0 2.8 2.8 0 0 1-5.6 0Z" /></svg>