<svg width="24" height="24" xmlns="http://www.w3.org/2000/svg"><path fill-rule="evenodd" clip-rule="evenodd" d="M14.118 4.446a3.038 3.038 0 0 0-3.745 0L5.691 8.15a2.788 2.788 0 0 0-1.073 2.184v7.035c0 1.54 1.295 2.83 2.946 2.83h9.363c1.651 0 2.946-1.29 2.946-2.83v-7.035c0-.84-.39-1.643-1.073-2.184l-4.682-3.705ZM9.38 3.19a4.638 4.638 0 0 1 5.731 0l4.682 3.706a4.388 4.388 0 0 1 1.68 3.438v7.035c0 2.47-2.059 4.43-4.546 4.43H7.564c-2.487 0-4.546-1.96-4.546-4.43v-7.035c0-1.34.622-2.6 1.68-3.438L9.38 3.19ZM8.7 17a.8.8 0 0 1 .8-.8h5.445a.8.8 0 0 1 0 1.6H9.5a.8.8 0 0 1-.8-.8Z"/></svg>