<svg width="12" height="12" fill="none" xmlns="http://www.w3.org/2000/svg"><g clip-path="url(#a)"><path d="M6.003 2.856c-1.704 0-3.078 1.403-3.078 3.142 0 1.74 1.374 3.142 3.078 3.142 1.703 0 3.077-1.403 3.077-3.142 0-1.739-1.374-3.142-3.077-3.142Zm0 5.185c-1.101 0-2.001-.916-2.001-2.043 0-1.126.897-2.042 2-2.042 1.104 0 2.002.916 2.002 2.042 0 1.127-.9 2.043-2.001 2.043Zm3.921-5.313a.724.724 0 0 1-.718.733.724.724 0 0 1-.718-.733c0-.405.322-.733.718-.733.397 0 .718.328.718.733Zm2.039.744c-.046-.982-.266-1.852-.97-2.568-.702-.716-1.554-.94-2.515-.99-.991-.057-3.962-.057-4.953 0-.959.047-1.81.27-2.515.987C.305 1.618.088 2.487.04 3.47c-.056 1.012-.056 4.044 0 5.056.046.981.265 1.85.97 2.567.704.717 1.553.94 2.515.99.991.058 3.962.058 4.953 0 .961-.046 1.813-.27 2.515-.99.702-.716.921-1.586.97-2.567.056-1.012.056-4.042 0-5.053Zm-1.28 6.138a2.047 2.047 0 0 1-1.142 1.165c-.79.32-2.665.246-3.538.246-.873 0-2.751.071-3.539-.246a2.047 2.047 0 0 1-1.14-1.165c-.314-.806-.242-2.72-.242-3.612 0-.891-.07-2.808.241-3.612a2.047 2.047 0 0 1 1.141-1.165C3.254.901 5.13.975 6.003.975c.873 0 2.75-.071 3.538.246.525.213.93.626 1.141 1.165.314.807.241 2.72.241 3.612 0 .892.073 2.808-.24 3.612Z" fill="url(#b)"/></g><defs><linearGradient id="b" x1="6.001" y1="-.129" x2="6.001" y2="12.125" gradientUnits="userSpaceOnUse"><stop stop-color="#8B26DA"/><stop offset=".555" stop-color="#DF1E71"/><stop offset="1" stop-color="#FF9E23"/></linearGradient><clipPath id="a"><path fill="#fff" d="M0 0h12v12H0z"/></clipPath></defs></svg>