<svg width="93" height="26" fill="none" xmlns="http://www.w3.org/2000/svg"><g clip-path="url(#a)" fill="#000"><path d="M53.983 13.058c-.03-2.186-.756-3.993-2.21-5.421-1.453-1.4-3.284-2.099-5.522-2.099-2.238 0-4.098.7-5.551 2.099-1.483 1.428-2.21 3.206-2.21 5.392 0 2.186.727 3.964 2.21 5.363 1.453 1.4 3.313 2.099 5.551 2.099 1.773 0 3.372-.495 4.767-1.516 1.395-1.02 2.296-2.302 2.703-3.876h-3.808c-.552 1.311-1.976 2.302-3.633 2.302-1.976 0-3.546-1.311-4.01-3.206h11.596c.087-.32.117-.7.117-1.137Zm-7.703-4.43c1.831 0 3.43 1.078 4.011 2.681h-7.876c.61-1.632 2.092-2.681 3.865-2.681ZM70.453 13.058c-.029-2.186-.755-3.993-2.209-5.421-1.453-1.4-3.284-2.099-5.522-2.099-2.238 0-4.098.7-5.552 2.099-1.482 1.428-2.209 3.206-2.209 5.392 0 2.186.727 3.964 2.21 5.363 1.453 1.4 3.313 2.099 5.55 2.099 1.774 0 3.372-.495 4.768-1.516 1.395-1.02 2.296-2.302 2.703-3.876h-3.808c-.552 1.311-1.976 2.302-3.633 2.302-1.976 0-3.546-1.311-4.011-3.206h11.597c.087-.32.116-.7.116-1.137Zm-7.702-4.43c1.831 0 3.43 1.078 4.01 2.681h-7.876c.61-1.632 2.093-2.681 3.866-2.681ZM72.217 20.229h3.778V0h-3.778v20.229ZM85.123 14.895l-4.01-9.065h-4.04l6.277 12.854L79.66 26h3.953L93 5.83h-3.953l-3.924 9.065ZM33.997 5.83h4.318L28.42 20.228H24.1l9.897-14.4Z"/><path d="M24.491 5.83h10.6v3.246h-10.6V5.83ZM27.41 16.98h10.192v3.247H27.41V16.98Z"/><path fill-rule="evenodd" clip-rule="evenodd" d="M.72 16.638v-.001H18.2.72Zm17.94-1.421c-.057.24-.124.478-.199.71H.459a9.434 9.434 0 0 1-.2-.71H18.66ZM4.484 21.07l.003.002h9.946s.002 0 .002-.002h-9.95Zm-.993-.709a9.524 9.524 0 0 1-.777-.71h13.492c-.246.251-.506.488-.778.71H3.491ZM1.05 17.347c.158.306.332.603.52.89h15.78c.19-.287.364-.583.522-.89H1.049Zm8.41 5.14a9.41 9.41 0 0 1-3.586-.705h7.174a9.41 9.41 0 0 1-3.587.705Zm-9.426-8.68A9.627 9.627 0 0 1 0 13.09h18.92c-.003.24-.014.48-.034.716H.033Zm.059-2.133c.042-.301.098-.598.167-.889H18.66c.07.291.126.588.168.889H.092Zm18.37-1.598H.457v-.002h18.003v.002Zm-.262-.71H.72c.1-.242.21-.479.328-.71h16.823c.12.231.229.468.329.71ZM16.976 7.24a9.53 9.53 0 0 0-.602-.712H2.545a9.528 9.528 0 0 0-.601.712h15.032ZM9.46 3.515c1.943 0 3.75.588 5.253 1.596H4.207A9.398 9.398 0 0 1 9.46 3.516Z"/><path fill-rule="evenodd" clip-rule="evenodd" d="M8.129 7.238c.394-.516.841-.991 1.332-1.416H3.28c-.49.425-.937.9-1.332 1.416h6.18Zm-.493.71H1.455c-.284.45-.53.925-.736 1.423h6.18c.206-.498.453-.973.737-1.424ZM.092 11.673c.077-.548.2-1.08.366-1.594h6.18a9.45 9.45 0 0 0-.365 1.594H.093Zm-.072.709a9.656 9.656 0 0 0 .013 1.42h6.18a9.64 9.64 0 0 1-.012-1.42H.02Zm.438 3.546a9.445 9.445 0 0 1-.34-1.417H6.3c.077.486.191.96.34 1.417H.457Zm.261.71c.233.56.517 1.095.848 1.595h6.18A9.472 9.472 0 0 1 6.9 16.64H.72Zm2.769 3.722a9.527 9.527 0 0 1-1.405-1.418h6.181c.417.52.888.996 1.405 1.418H3.488Zm.991.71A9.396 9.396 0 0 0 9.46 22.49a9.424 9.424 0 0 0 3.09-.518 9.402 9.402 0 0 1-1.89-.902H4.48ZM12.55 4.035c-.77.267-1.495.63-2.16 1.077H4.207A9.398 9.398 0 0 1 9.46 3.518c1.082 0 2.122.182 3.09.518Z"/></g><defs><clipPath id="a"><path fill="#fff" d="M0 0h93v26H0z"/></clipPath></defs></svg>