<svg width="24" height="24" xmlns="http://www.w3.org/2000/svg"><path fill-rule="evenodd" clip-rule="evenodd" d="M7.71 6.2a4.3 4.3 0 0 1 8.58 0h.154a3.8 3.8 0 0 1 3.752 3.197l1.285 8A3.8 3.8 0 0 1 17.73 21.8H6.271a3.8 3.8 0 0 1-3.752-4.403l1.286-8A3.8 3.8 0 0 1 7.556 6.2h.154ZM7.7 7.8v.7a.8.8 0 1 0 1.6 0v-.7h5.4v.7a.8.8 0 0 0 1.6 0v-.7h.144c1.08 0 2 .784 2.172 1.85l1.285 8a2.2 2.2 0 0 1-2.172 2.55H6.271a2.2 2.2 0 0 1-2.172-2.55l1.285-8A2.2 2.2 0 0 1 7.556 7.8H7.7Zm6.984-1.6H9.317a2.7 2.7 0 0 1 5.367 0Z"/></svg>