<svg width="24" height="24" xmlns="http://www.w3.org/2000/svg"><path d="M15.996 13.934v.046c.002.638-.304 1.252-.855 1.721l.002-.002c-.574.494-1.35.817-2.196.912l-.02.002v1.18a.187.187 0 0 1-.078.146.306.306 0 0 1-.187.061h-1.166a.32.32 0 0 1-.194-.064.197.197 0 0 1-.08-.15v-1.173a6.658 6.658 0 0 1-1.131-.217l.038.01a5.876 5.876 0 0 1-1.517-.627l.013.007a4.752 4.752 0 0 1-.403-.254l.005.003a2.023 2.023 0 0 1-.15-.12A.187.187 0 0 1 8 15.28a.178.178 0 0 1 .06-.14l.883-.904a.26.26 0 0 1 .087-.057.323.323 0 0 1 .11-.023.271.271 0 0 1 .113.008c.036.01.068.029.092.053l.017.013a4.987 4.987 0 0 0 2.053.833l.03.005c.19.034.41.053.634.053h.04c.442 0 .851-.107 1.188-.291l-.007.003c.17-.09.308-.212.4-.356a.77.77 0 0 0 .128-.463v.003a.57.57 0 0 0-.13-.358l.001.003a1.385 1.385 0 0 0-.286-.28 2.518 2.518 0 0 0-.488-.247l-.014-.005a14.926 14.926 0 0 0-.563-.214 17.244 17.244 0 0 0-.685-.218 98.065 98.065 0 0 0-.528-.167c-.128-.04-.304-.1-.527-.178a7.056 7.056 0 0 1-.536-.207 9.65 9.65 0 0 1-.484-.238 3.053 3.053 0 0 1-.462-.285 4.682 4.682 0 0 1-.364-.32l-.008-.007a1.629 1.629 0 0 1-.299-.378l-.005-.01a2.215 2.215 0 0 1-.176-.428l-.005-.018a1.802 1.802 0 0 1-.072-.511v-.027c0-.625.32-1.192.84-1.605.58-.471 1.338-.784 2.162-.894l.023-.003v-1.21c0-.058.032-.111.082-.148a.277.277 0 0 1 .087-.047.33.33 0 0 1 .103-.017h1.17c.146 0 .264.093.264.207v1.186c.352.03.673.084.981.162l-.034-.008c.294.07.541.147.778.236l-.033-.011c.21.081.389.165.558.258l-.013-.007c.17.094.282.158.334.194.052.035.095.066.128.093a.185.185 0 0 1 .084.121.161.161 0 0 1-.041.134l-.692.978a.201.201 0 0 1-.08.075.277.277 0 0 1-.117.032.347.347 0 0 1-.123-.002.302.302 0 0 1-.109-.045 1.626 1.626 0 0 0-.123-.08 5.11 5.11 0 0 0-.335-.178 4.72 4.72 0 0 0-.474-.205l-.027-.01a4.313 4.313 0 0 0-.611-.169l-.027-.004a3.512 3.512 0 0 0-.732-.077 2.694 2.694 0 0 0-1.337.292l.008-.004a.963.963 0 0 0-.46.475.716.716 0 0 0 .02.596l-.002-.006c.06.11.145.203.252.278h.002c.103.076.213.148.328.216l.01.005c.138.074.296.144.462.202l.019.006a16.156 16.156 0 0 0 1.119.365c.303.089.534.16.694.21.16.052.377.13.652.235.23.085.453.183.666.294l-.019-.01c.199.11.371.22.536.338l-.004-.003c.177.121.328.261.449.418l.005.008c.107.146.198.317.265.495l.006.017c.07.183.109.393.109.61v.021l-.004-.004Z"/><path fill-rule="evenodd" clip-rule="evenodd" d="M12 20.4a8.4 8.4 0 1 0 0-16.8 8.4 8.4 0 0 0 0 16.8Zm0 1.6c5.523 0 10-4.477 10-10S17.523 2 12 2 2 6.477 2 12s4.477 10 10 10Z"/></svg>