<svg width="24" height="24" xmlns="http://www.w3.org/2000/svg"><path fill-rule="evenodd" clip-rule="evenodd" d="M16.843 10.444c1.193.694 1.193 2.418 0 3.112l-6.465 3.762c-1.2.698-2.706-.168-2.706-1.556V8.238c0-1.388 1.506-2.254 2.706-1.556l6.465 3.762Zm-.805 1.729a.2.2 0 0 0 0-.346L9.573 8.065a.2.2 0 0 0-.3.173v7.524a.2.2 0 0 0 .3.173l6.465-3.762Z" /><path fill-rule="evenodd" clip-rule="evenodd" d="M12 20.4a8.4 8.4 0 1 0 0-16.8 8.4 8.4 0 0 0 0 16.8Zm0 1.6c5.523 0 10-4.477 10-10S17.523 2 12 2 2 6.477 2 12s4.477 10 10 10Z"/></svg>